PathFileType	4	(X/Y/Z)	D:\TRACE\v60_Jaco2_6-2-23\JustBodyDRS_Motion3_7-v60.trc
DataRate	CameraRate	NumFrames	NumMarkers	Units	OrigDataRate	OrigDataStartFrame	OrigNumFrames
100.00	100.00	      17	9	mm	100.00	876	      7000
Frame#	Time	front left toe			Front right toe			aft left toe			aft right toe			Arm			FL body			FR body			AL Body			AR Body			
		X1	Y1	Z1	X2	Y2	Z2	X3	Y3	Z3	X4	Y4	Z4	X5	Y5	Z5	X6	Y6	Z6	X7	Y7	Z7	X8	Y8	Z8	X9	Y9	Z9	

876	8.750	-192.52786	-2.96625	-295.27557	195.73775	121.85695	-282.98080	-199.66039	153.66882	325.36255	167.48752	30.43531	334.04434	27.61577	1155.64661	-395.53036	-71.18498	507.30154	-464.56174	87.44934	506.83725	-459.49118	-93.96519	576.72498	475.98123	57.85242	568.32544	482.05585	
877	8.760	-192.44519	-3.09880	-295.15628	194.70581	116.69006	-281.06674	-199.18867	149.74065	328.34433	168.04071	30.53641	334.05637	27.04629	1155.77808	-394.99075	-71.52673	507.03479	-463.40149	87.37683	506.60501	-458.80774	-93.11813	577.94482	477.89713	59.83714	568.43188	482.80362	
878	8.770	-192.22281	-3.17149	-294.93756	193.74295	110.29994	-279.48630	-198.35664	144.72885	331.35294	168.28865	30.52266	334.06296	26.61623	1155.92041	-394.54681	-72.14987	507.20187	-462.99966	86.91177	506.54987	-458.40448	-91.93575	578.29095	478.87802	61.00092	568.66974	483.49359	
879	8.780	-192.09236	-3.26020	-294.79971	192.65611	102.92137	-277.92520	-197.59718	137.86630	335.00226	168.70828	30.53751	334.10806	26.68733	1155.65710	-393.90680	-71.93254	507.02435	-461.43881	86.85335	506.14822	-457.20163	-90.49892	578.48993	479.96548	62.21783	568.91138	484.47919	
880	8.790	-191.93753	-3.33929	-294.71777	191.70886	94.25982	-276.65820	-196.57202	129.81516	338.28683	169.03937	30.39068	334.07193	27.08604	1155.44751	-393.29202	-72.26757	507.01743	-460.54147	86.43473	506.10367	-456.44626	-89.52532	578.69531	481.08087	63.52043	568.86554	485.36282	
881	8.800	-191.82875	-3.42037	-294.57330	191.90747	84.86723	-274.93439	-195.35156	120.61485	341.75894	169.17703	30.37211	334.10889	27.70341	1155.05505	-392.70984	-72.53316	506.80173	-459.30148	86.42852	505.91846	-455.52710	-88.17834	579.09167	482.30624	64.61790	569.23480	486.54410	
882	8.810	-191.74196	-3.45437	-294.53564	192.11594	74.99045	-272.56079	-194.00934	110.37344	345.60901	169.35541	30.26419	333.98071	28.62910	1154.83032	-391.48056	-72.33523	506.42480	-457.59991	86.15315	505.59985	-454.27451	-87.06634	579.39972	483.59402	66.06752	569.41583	487.35022	
883	8.820	-191.48141	-3.65449	-294.39532	192.21924	64.49420	-269.49039	-192.00291	99.04851	349.03555	169.56686	30.22104	333.99033	28.88529	1154.59155	-390.36844	-72.98122	506.29407	-456.82062	86.16479	505.08054	-453.18213	-85.33066	579.30084	484.91711	66.94289	569.47986	488.49255	
884	8.830	-191.06183	-3.90631	-294.26898	192.46736	53.67916	-266.06622	-190.23933	88.11578	352.69519	169.78300	30.10650	334.00314	29.38889	1154.36755	-389.26883	-72.76669	506.05753	-455.14566	86.13367	504.91144	-452.17294	-84.27610	579.32770	486.32187	68.63287	569.36420	489.70218	
885	8.840	-190.78188	-3.84056	-294.01144	192.21541	42.35794	-262.75507	-188.89905	78.03175	356.25488	170.26224	30.16728	334.03207	29.91290	1154.19141	-388.09305	-72.84345	506.16779	-453.84756	86.18285	504.67435	-450.80307	-83.01933	579.23822	487.70081	69.79647	569.29370	490.89194	
886	8.850	-190.63185	-3.76127	-293.88483	191.33519	32.48852	-260.96542	-187.27983	67.66956	358.90710	170.80013	30.25901	334.09085	30.10699	1154.11963	-386.74527	-72.49306	506.10681	-452.41910	86.15793	504.70798	-449.78326	-81.60551	579.15857	489.18509	71.27921	568.93591	492.03461	
887	8.860	-190.44794	-3.76018	-293.76608	191.86362	23.26536	-259.06140	-186.22160	58.48364	360.57587	171.22092	30.28144	334.29379	30.72108	1154.00732	-385.18805	-72.55386	506.16827	-451.09512	86.38660	504.65463	-448.74243	-79.84617	578.90228	490.50238	72.55792	568.64264	493.32669	
888	8.870	-190.16322	-3.82911	-293.47391	192.06024	14.88332	-258.41867	-185.34158	49.84452	361.61917	171.74210	30.26079	334.35611	31.01863	1154.10437	-383.66971	-72.23859	505.91110	-449.45151	86.32496	504.57199	-447.36679	-78.35242	578.60980	491.98883	74.36726	568.37207	494.64001	
889	8.880	-189.97249	-3.92882	-293.30246	192.82225	7.69521	-257.72983	-184.41644	42.02605	362.53613	172.10654	30.17454	334.36072	31.19942	1154.12146	-382.18973	-72.33839	506.03537	-448.15820	86.64553	504.61896	-446.28873	-77.02619	578.26013	493.38196	75.47641	567.84235	495.65585	
890	8.890	-189.87424	-3.89793	-293.38300	193.66512	2.33460	-257.75977	-183.21361	36.58838	361.97418	172.14151	29.75733	334.32388	31.83495	1153.96838	-380.59372	-72.22525	506.04300	-446.91510	86.78553	504.55450	-445.22891	-75.83736	577.55591	494.82901	76.77711	567.24988	496.82559	
891	8.900	-189.60017	-3.86171	-293.28665	194.74487	1.91344	-258.69760	-183.92220	35.27999	362.84991	172.24132	29.38929	334.28586	32.43985	1153.90173	-378.81931	-72.06863	506.21692	-445.65393	86.28531	504.87216	-444.00421	-74.25549	577.52075	495.97458	78.10404	567.11505	497.95001	
892	8.910	-188.77292	-4.26708	-293.24811	194.95316	0.21835	-259.88266	-183.56165	35.27529	362.09653	172.29814	29.59300	334.32846	33.19077	1154.14661	-377.12854	-71.89503	506.53525	-444.51343	86.51026	504.90991	-442.76773	-72.64754	578.15338	497.19833	79.48809	567.68085	499.03159	
